<svg xmlns="http://www.w3.org/2000/svg" viewBox="0 0 64 64" fill="none">
  <defs>
    <linearGradient id="fav-panel" x1="8" y1="6" x2="56" y2="58" gradientUnits="userSpaceOnUse">
      <stop offset="0" stop-color="#0F172A" />
      <stop offset="1" stop-color="#20314F" />
    </linearGradient>
    <linearGradient id="fav-bars" x1="0" y1="0" x2="0" y2="1">
      <stop offset="0" stop-color="#62D1FF" />
      <stop offset="1" stop-color="#2E5AA7" />
    </linearGradient>
  </defs>
  <rect x="4" y="4" width="56" height="56" rx="16" fill="url(#fav-panel)" />
  <g opacity="0.18" stroke="#9CC4FF" stroke-width="1.2" stroke-linecap="round">
    <path d="M14 18H50" />
    <path d="M14 28H50" />
    <path d="M14 38H50" />
    <path d="M14 48H50" />
  </g>
  <rect x="17" y="31" width="6" height="17" rx="1.5" fill="url(#fav-bars)" />
  <rect x="26" y="25" width="6" height="23" rx="1.5" fill="url(#fav-bars)" />
  <rect x="35" y="20" width="6" height="28" rx="1.5" fill="url(#fav-bars)" />
  <rect x="44" y="15" width="6" height="33" rx="1.5" fill="url(#fav-bars)" />
  <path
    d="M12 39C16 42.5 21 44 26 43.5C32 42.7 37 39.3 43 31.5"
    stroke="#FF5449"
    stroke-width="3.6"
    stroke-linecap="round"
    stroke-linejoin="round"
  />
  <path d="M41 24L49 19L47 29L41 24Z" fill="#FF5449" />
</svg>
