<svg xmlns="http://www.w3.org/2000/svg" viewBox="0 0 1600 512" fill="none">
  <defs>
    <linearGradient id="lockup-panel" x1="438" y1="72" x2="1576" y2="440" gradientUnits="userSpaceOnUse">
      <stop offset="0" stop-color="#0F172A" />
      <stop offset="0.55" stop-color="#162338" />
      <stop offset="1" stop-color="#20314F" />
    </linearGradient>
    <linearGradient id="lockup-bar-1" x1="187" y1="355" x2="187" y2="250" gradientUnits="userSpaceOnUse">
      <stop offset="0" stop-color="#2E5AA7" />
      <stop offset="1" stop-color="#4179D8" />
    </linearGradient>
    <linearGradient id="lockup-bar-2" x1="243" y1="355" x2="243" y2="210" gradientUnits="userSpaceOnUse">
      <stop offset="0" stop-color="#2577BC" />
      <stop offset="1" stop-color="#36A2EB" />
    </linearGradient>
    <linearGradient id="lockup-bar-3" x1="299" y1="355" x2="299" y2="168" gradientUnits="userSpaceOnUse">
      <stop offset="0" stop-color="#1D89C0" />
      <stop offset="1" stop-color="#62D1FF" />
    </linearGradient>
    <linearGradient id="lockup-bar-4" x1="355" y1="355" x2="355" y2="134" gradientUnits="userSpaceOnUse">
      <stop offset="0" stop-color="#195E9F" />
      <stop offset="1" stop-color="#4AAEFF" />
    </linearGradient>
  </defs>

  <rect x="352" y="76" width="1224" height="360" rx="96" fill="url(#lockup-panel)" />
  <rect x="354" y="78" width="1220" height="356" rx="94" stroke="rgba(255,255,255,0.08)" stroke-width="2" />

  <g transform="translate(48 54)">
    <rect x="0" y="0" width="332" height="332" rx="92" fill="#0E1628" />
    <rect x="12" y="12" width="308" height="308" rx="80" stroke="rgba(255,255,255,0.08)" stroke-width="2" />

    <g opacity="0.22" stroke="#9CC4FF" stroke-width="6" stroke-linecap="round">
      <path d="M82 92H288" />
      <path d="M82 146H288" />
      <path d="M82 200H288" />
      <path d="M82 254H288" />
      <path d="M82 308H288" />
    </g>

    <rect x="123" y="210" width="39" height="108" rx="10" fill="url(#lockup-bar-1)" />
    <rect x="179" y="170" width="39" height="148" rx="10" fill="url(#lockup-bar-2)" />
    <rect x="235" y="128" width="39" height="190" rx="10" fill="url(#lockup-bar-3)" />
    <rect x="291" y="94" width="39" height="224" rx="10" fill="url(#lockup-bar-4)" />

    <path
      d="M76 264C109 296 154 306 199 296C251 286 298 252 345 176"
      stroke="#FF5449"
      stroke-width="24"
      stroke-linecap="round"
      stroke-linejoin="round"
    />
    <path d="M330 132L382 96L370 158L330 132Z" fill="#FF5449" />

    <circle cx="146" cy="290" r="10" fill="#F4F1EA" />
    <circle cx="146" cy="290" r="4" fill="#0F172A" />
  </g>

  <text x="456" y="222" fill="#F4F1EA" font-family="Arial, Helvetica, sans-serif" font-size="88" font-weight="700" letter-spacing="-1.5">
    Риск-калькулятор
  </text>
  <text x="1288" y="222" fill="#FF5449" font-family="Arial, Helvetica, sans-serif" font-size="88" font-weight="800" letter-spacing="-1">
    СПФИ
  </text>

  <path d="M458 260H1416" stroke="#5FB4FF" stroke-opacity="0.42" stroke-width="4" stroke-linecap="round" />
  <text x="458" y="328" fill="#D7E4F7" fill-opacity="0.92" font-family="Arial, Helvetica, sans-serif" font-size="42" font-weight="700" letter-spacing="1.8">
    MOEX SPFI RISK CALCULATOR
  </text>
  <text x="458" y="378" fill="#98ADC9" font-family="Arial, Helvetica, sans-serif" font-size="28" font-weight="400" letter-spacing="0.8">
    Portfolio risk, stress and scenario analytics
  </text>
</svg>
