<svg xmlns="http://www.w3.org/2000/svg" viewBox="0 0 1024 1024" fill="none">
  <defs>
    <linearGradient id="logo-panel" x1="162" y1="112" x2="862" y2="912" gradientUnits="userSpaceOnUse">
      <stop offset="0" stop-color="#0F172A" />
      <stop offset="0.58" stop-color="#17233B" />
      <stop offset="1" stop-color="#20314F" />
    </linearGradient>
    <linearGradient id="logo-bar-1" x1="330" y1="664" x2="330" y2="462" gradientUnits="userSpaceOnUse">
      <stop offset="0" stop-color="#2E5AA7" />
      <stop offset="1" stop-color="#4179D8" />
    </linearGradient>
    <linearGradient id="logo-bar-2" x1="438" y1="664" x2="438" y2="392" gradientUnits="userSpaceOnUse">
      <stop offset="0" stop-color="#2577BC" />
      <stop offset="1" stop-color="#36A2EB" />
    </linearGradient>
    <linearGradient id="logo-bar-3" x1="546" y1="664" x2="546" y2="316" gradientUnits="userSpaceOnUse">
      <stop offset="0" stop-color="#1D89C0" />
      <stop offset="1" stop-color="#62D1FF" />
    </linearGradient>
    <linearGradient id="logo-bar-4" x1="654" y1="664" x2="654" y2="252" gradientUnits="userSpaceOnUse">
      <stop offset="0" stop-color="#195E9F" />
      <stop offset="1" stop-color="#4AAEFF" />
    </linearGradient>
    <filter id="logo-shadow" x="111" y="111" width="802" height="802" filterUnits="userSpaceOnUse" color-interpolation-filters="sRGB">
      <feFlood flood-opacity="0" result="BackgroundImageFix" />
      <feColorMatrix in="SourceAlpha" type="matrix" values="0 0 0 0 0 0 0 0 0 0 0 0 0 0 0 0 0 0 127 0" result="hardAlpha" />
      <feOffset dy="20" />
      <feGaussianBlur stdDeviation="26" />
      <feComposite in2="hardAlpha" operator="out" />
      <feColorMatrix type="matrix" values="0 0 0 0 0.0235294 0 0 0 0 0.0470588 0 0 0 0 0.101961 0 0 0 0.22 0" />
      <feBlend mode="normal" in2="BackgroundImageFix" result="effect1_dropShadow_1_1" />
      <feBlend mode="normal" in="SourceGraphic" in2="effect1_dropShadow_1_1" result="shape" />
    </filter>
  </defs>

  <g filter="url(#logo-shadow)">
    <rect x="162" y="112" width="700" height="700" rx="196" fill="url(#logo-panel)" />
    <rect x="192" y="142" width="640" height="640" rx="166" stroke="rgba(255,255,255,0.08)" stroke-width="2" />
  </g>

  <g opacity="0.18" stroke="#9CC4FF" stroke-width="14" stroke-linecap="round">
    <path d="M286 274H738" />
    <path d="M286 384H738" />
    <path d="M286 494H738" />
    <path d="M286 604H738" />
    <path d="M286 714H738" />
  </g>

  <g opacity="0.28">
    <path d="M286 274V714" stroke="#9CC4FF" stroke-width="12" stroke-linecap="round" />
    <path d="M392 274V714" stroke="#9CC4FF" stroke-width="12" stroke-linecap="round" />
    <path d="M498 274V714" stroke="#9CC4FF" stroke-width="12" stroke-linecap="round" />
    <path d="M604 274V714" stroke="#9CC4FF" stroke-width="12" stroke-linecap="round" />
    <path d="M710 274V714" stroke="#9CC4FF" stroke-width="12" stroke-linecap="round" />
  </g>

  <rect x="284" y="472" width="92" height="192" rx="22" fill="url(#logo-bar-1)" />
  <rect x="392" y="392" width="92" height="272" rx="22" fill="url(#logo-bar-2)" />
  <rect x="500" y="316" width="92" height="348" rx="22" fill="url(#logo-bar-3)" />
  <rect x="608" y="252" width="92" height="412" rx="22" fill="url(#logo-bar-4)" />

  <path
    d="M236 568C289 620 370 632 454 612C550 588 632 524 724 380"
    stroke="#FF5449"
    stroke-width="46"
    stroke-linecap="round"
    stroke-linejoin="round"
  />
  <path d="M700 298L780 242L760 336L700 298Z" fill="#FF5449" />

  <circle cx="346" cy="602" r="18" fill="#F4F1EA" />
  <circle cx="346" cy="602" r="8" fill="#0F172A" />

  <path d="M302 764H724" stroke="rgba(244,241,234,0.18)" stroke-width="18" stroke-linecap="round" />
</svg>
